<?xml version="1.0" standalone="no"?>
<!DOCTYPE svg PUBLIC "-//W3C//DTD SVG 20010904//EN"
 "http://www.w3.org/TR/2001/REC-SVG-20010904/DTD/svg10.dtd">
<svg version="1.0" xmlns="http://www.w3.org/2000/svg"
 width="240.000000pt" height="240.000000pt" viewBox="0 0 240.000000 240.000000"
 preserveAspectRatio="xMidYMid meet">
<metadata>
Created by potrace 1.11, written by Peter Selinger 2001-2013
</metadata>
<g transform="translate(0.000000,240.000000) scale(0.100000,-0.100000)"
fill="#000000" stroke="none">
<path d="M370 1885 l0 -445 75 0 75 0 0 370 0 370 495 0 495 0 0 -145 0 -145
150 0 150 0 0 -225 0 -225 75 0 75 0 0 283 0 283 -169 162 -169 162 -626 0
-626 0 0 -445z m1330 190 l54 -55 -57 0 -57 0 0 55 c0 30 1 55 3 55 1 0 27
-25 57 -55z"/>
<path d="M1247 1763 c-9 -11 -35 -110 -61 -238 -26 -121 -48 -224 -49 -229 -2
-5 -34 37 -71 95 -83 127 -103 149 -133 149 -38 0 -57 -15 -112 -84 l-52 -65
-335 -3 -336 -3 -19 -24 c-25 -30 -24 -76 1 -101 19 -19 33 -20 386 -20 l366
0 44 47 c27 30 47 44 52 38 5 -6 46 -68 92 -140 92 -145 110 -165 150 -165 55
0 67 23 102 193 18 86 35 157 39 157 4 0 12 -23 19 -50 20 -82 13 -80 346 -80
l291 0 27 -41 c29 -43 109 -89 156 -89 120 0 224 116 205 230 -21 125 -152
200 -270 156 -41 -16 -105 -74 -105 -96 0 -6 -99 -10 -258 -10 l-258 0 -48
178 c-26 97 -55 185 -64 195 -9 10 -29 17 -52 17 -22 0 -43 -7 -53 -17z m947
-419 c21 -20 20 -43 -1 -66 -31 -34 -83 -12 -83 36 0 44 52 63 84 30z"/>
<path d="M1810 890 l0 -290 -408 0 -409 0 -103 -115 c-57 -64 -106 -112 -110
-108 -4 4 -15 40 -24 78 -9 39 -21 87 -27 108 l-10 37 -99 0 -100 0 0 280 0
280 -75 0 -75 0 0 -355 0 -355 115 0 114 0 10 -37 c6 -21 26 -103 46 -183 19
-80 39 -153 43 -162 5 -13 45 26 186 183 l179 199 448 0 449 0 0 365 0 365
-75 0 -75 0 0 -290z"/>
</g>
</svg>
